# xmcd
#
# Track frame offsets: 
#        150
#        14165
#        27570
#        39372
#        51105
#        63888
#        78116
#        86192
#        99011
#        113126
#        124264
#        135039
#        146472
#        159776
#
# Disc length: 2294 seconds
#
# Revision: 0
# Processed by: cddbd v1.5.1PL0 Copyright (c) Steve Scherf et al.
# Submitted via: ExactAudioCopy v0.95a5
#
DISCID=a608f40e
DTITLE=Various Artist - Country Hits Forever Gold
DYEAR=2001
DGENRE=Country
TTITLE0=Wasted Days and Wasted Nights- Freddy Fender
TTITLE1=Rose Garden- Lynn Anderson
TTITLE2=Oh Lonesome Me- Don Gibson
TTITLE3=The Happiest Girl in The USA- Donna Fargo
TTITLE4=My Elusive Dreams- David Houston
TTITLE5=I Cheated Me Right Out of You- Moe Bandy
TTITLE6=Blue Blue Day- Don Gibson
TTITLE7=It's Four In The Morning- Faron Young
TTITLE8=Teddy Bear Song- Barbara Fairchild
TTITLE9=Misery Loves Company- Porter Wagoner
TTITLE10=Wings Of A Dove- Ferlin Husky
TTITLE11=Heartbreak USA- Kitty Wells
TTITLE12=Keep Me In Mind- Lynn Anderson
TTITLE13=Take This Job And Shove It- Johnny Paycheck
EXTD=
EXTT0=
EXTT1=
EXTT2=
EXTT3=
EXTT4=
EXTT5=
EXTT6=
EXTT7=
EXTT8=
EXTT9=
EXTT10=
EXTT11=
EXTT12=
EXTT13=
PLAYORDER=
